<svg xmlns="http://www.w3.org/2000/svg" xmlns:xlink="http://www.w3.org/1999/xlink" width="96" zoomAndPan="magnify" viewBox="0 0 72 72" height="96" preserveAspectRatio="xMidYMid meet" version="1.2"><defs><clipPath id="5218da5b86"><path d="M 8.46875 43 L 54 43 L 54 62.71875 L 8.46875 62.71875 Z M 8.46875 43 "/></clipPath><clipPath id="7da059fe50"><path d="M 18 9.46875 L 47 9.46875 L 47 52 L 18 52 Z M 18 9.46875 "/></clipPath><clipPath id="71343224ff"><path d="M 34 19 L 63.21875 19 L 63.21875 62.71875 L 34 62.71875 Z M 34 19 "/></clipPath></defs><g id="e632a9db57"><rect x="0" width="72" y="0" height="72" style="fill:#ffffff;fill-opacity:1;stroke:none;"/><rect x="0" width="72" y="0" height="72" style="fill:#166678;fill-opacity:1;stroke:none;"/><path style="fill:none;stroke-width:2;stroke-linecap:butt;stroke-linejoin:miter;stroke:#19df92;stroke-opacity:1;stroke-miterlimit:4;" d="M 0 -0.00000266667 L 96.00001 -0.00000266667 L 96.00001 96.000007 L 0 96.000007 Z M 0 -0.00000266667 " transform="matrix(0.75,0,0,0.75,0,0.000002)"/><g clip-rule="nonzero" clip-path="url(#5218da5b86)"><path style=" stroke:none;fill-rule:nonzero;fill:#19df92;fill-opacity:1;" d="M 20.628906 62.226562 C 19.832031 62.226562 19.042969 62.148438 18.257812 61.992188 C 17.476562 61.832031 16.714844 61.601562 15.976562 61.296875 C 15.242188 60.988281 14.539062 60.613281 13.875 60.171875 C 13.210938 59.726562 12.597656 59.222656 12.035156 58.65625 C 11.46875 58.089844 10.964844 57.476562 10.523438 56.8125 C 10.078125 56.148438 9.707031 55.449219 9.398438 54.710938 C 9.09375 53.972656 8.863281 53.210938 8.707031 52.429688 C 8.550781 51.644531 8.472656 50.855469 8.472656 50.054688 L 8.472656 50.03125 C 8.496094 47.832031 9.078125 45.796875 10.222656 43.921875 C 10.359375 43.714844 10.53125 43.546875 10.738281 43.40625 C 10.941406 43.269531 11.164062 43.175781 11.40625 43.125 C 11.648438 43.070312 11.890625 43.066406 12.132812 43.109375 C 12.378906 43.152344 12.605469 43.238281 12.816406 43.367188 C 13.023438 43.496094 13.203125 43.660156 13.351562 43.859375 C 13.496094 44.058594 13.601562 44.277344 13.664062 44.515625 C 13.726562 44.753906 13.742188 44.996094 13.707031 45.242188 C 13.675781 45.488281 13.601562 45.71875 13.480469 45.933594 C 12.710938 47.203125 12.320312 48.582031 12.308594 50.070312 C 12.308594 51 12.464844 51.902344 12.765625 52.78125 C 13.070312 53.660156 13.511719 54.464844 14.082031 55.195312 C 14.65625 55.929688 15.332031 56.546875 16.113281 57.050781 C 16.894531 57.558594 17.734375 57.921875 18.636719 58.148438 C 19.539062 58.371094 20.453125 58.441406 21.378906 58.363281 C 22.304688 58.28125 23.191406 58.050781 24.042969 57.671875 C 24.890625 57.296875 25.65625 56.789062 26.335938 56.15625 C 27.015625 55.523438 27.578125 54.796875 28.011719 53.976562 L 28.027344 53.949219 C 30.113281 50.171875 32.96875 48.085938 36.066406 48.085938 L 51.429688 48.085938 C 51.683594 48.085938 51.925781 48.136719 52.164062 48.234375 C 52.398438 48.332031 52.605469 48.46875 52.785156 48.648438 C 52.964844 48.828125 53.101562 49.035156 53.199219 49.269531 C 53.296875 49.503906 53.347656 49.75 53.347656 50.003906 C 53.347656 50.257812 53.296875 50.503906 53.199219 50.738281 C 53.101562 50.972656 52.964844 51.179688 52.785156 51.359375 C 52.605469 51.539062 52.398438 51.679688 52.164062 51.773438 C 51.925781 51.871094 51.683594 51.921875 51.429688 51.921875 L 36.074219 51.921875 C 33.789062 51.921875 32.050781 54.621094 31.398438 55.792969 C 30.878906 56.765625 30.234375 57.652344 29.472656 58.453125 C 28.710938 59.253906 27.855469 59.933594 26.90625 60.5 C 25.957031 61.070312 24.949219 61.5 23.886719 61.792969 C 22.820312 62.085938 21.734375 62.230469 20.628906 62.226562 Z M 20.628906 62.226562 "/></g><g clip-rule="nonzero" clip-path="url(#7da059fe50)"><path style=" stroke:none;fill-rule:nonzero;fill:#19df92;fill-opacity:1;" d="M 20.648438 51.972656 C 20.484375 51.972656 20.320312 51.953125 20.160156 51.910156 C 20 51.867188 19.847656 51.804688 19.703125 51.722656 C 19.558594 51.640625 19.429688 51.542969 19.308594 51.425781 C 19.191406 51.308594 19.089844 51.179688 19.003906 51.039062 C 18.917969 50.894531 18.855469 50.742188 18.808594 50.585938 C 18.761719 50.425781 18.738281 50.261719 18.734375 50.097656 C 18.730469 49.929688 18.75 49.769531 18.789062 49.605469 C 18.828125 49.445312 18.886719 49.292969 18.964844 49.144531 L 26.992188 34.320312 C 28.105469 32.285156 26.523438 29.453125 25.789062 28.328125 C 25.789062 28.316406 25.777344 28.308594 25.769531 28.300781 C 25.347656 27.621094 24.992188 26.90625 24.710938 26.160156 C 24.425781 25.414062 24.21875 24.644531 24.085938 23.855469 C 23.953125 23.066406 23.898438 22.273438 23.925781 21.472656 C 23.949219 20.671875 24.050781 19.882812 24.230469 19.105469 C 24.410156 18.324219 24.664062 17.570312 24.992188 16.84375 C 25.320312 16.113281 25.71875 15.421875 26.179688 14.773438 C 26.644531 14.121094 27.167969 13.519531 27.75 12.972656 C 28.332031 12.425781 28.964844 11.9375 29.640625 11.515625 C 30.320312 11.089844 31.03125 10.738281 31.78125 10.453125 C 32.527344 10.171875 33.296875 9.960938 34.085938 9.828125 C 34.875 9.699219 35.667969 9.644531 36.46875 9.667969 C 37.265625 9.691406 38.054688 9.792969 38.835938 9.972656 C 39.613281 10.152344 40.371094 10.40625 41.097656 10.734375 C 41.828125 11.0625 42.519531 11.460938 43.167969 11.925781 C 43.820312 12.390625 44.421875 12.914062 44.96875 13.496094 C 45.515625 14.078125 46.003906 14.707031 46.425781 15.386719 C 46.539062 15.566406 46.648438 15.75 46.753906 15.9375 C 46.867188 16.160156 46.9375 16.394531 46.960938 16.644531 C 46.988281 16.894531 46.964844 17.136719 46.890625 17.378906 C 46.820312 17.617188 46.703125 17.835938 46.546875 18.03125 C 46.390625 18.226562 46.203125 18.382812 45.984375 18.503906 C 45.765625 18.625 45.53125 18.703125 45.28125 18.730469 C 45.035156 18.761719 44.789062 18.742188 44.546875 18.675781 C 44.304688 18.609375 44.085938 18.5 43.886719 18.347656 C 43.6875 18.195312 43.527344 18.011719 43.398438 17.796875 C 43.328125 17.667969 43.253906 17.542969 43.175781 17.410156 C 42.886719 16.945312 42.554688 16.515625 42.179688 16.117188 C 41.800781 15.714844 41.390625 15.359375 40.945312 15.039062 C 40.5 14.722656 40.027344 14.449219 39.527344 14.222656 C 39.03125 14 38.511719 13.824219 37.980469 13.699219 C 37.445312 13.578125 36.90625 13.507812 36.359375 13.488281 C 35.808594 13.472656 35.265625 13.507812 34.726562 13.597656 C 34.1875 13.6875 33.660156 13.832031 33.148438 14.023438 C 32.632812 14.21875 32.144531 14.460938 31.679688 14.75 C 31.214844 15.039062 30.785156 15.371094 30.386719 15.746094 C 29.984375 16.121094 29.628906 16.535156 29.308594 16.980469 C 28.992188 17.425781 28.71875 17.898438 28.492188 18.398438 C 28.269531 18.894531 28.09375 19.414062 27.96875 19.945312 C 27.847656 20.480469 27.777344 21.019531 27.757812 21.566406 C 27.742188 22.113281 27.777344 22.660156 27.867188 23.199219 C 27.957031 23.738281 28.101562 24.265625 28.292969 24.777344 C 28.488281 25.289062 28.730469 25.78125 29.019531 26.242188 C 31.390625 29.886719 31.867188 33.398438 30.363281 36.144531 L 22.335938 50.96875 C 22.167969 51.277344 21.933594 51.523438 21.632812 51.703125 C 21.328125 51.882812 21 51.972656 20.648438 51.972656 Z M 20.648438 51.972656 "/></g><g clip-rule="nonzero" clip-path="url(#71343224ff)"><path style=" stroke:none;fill-rule:nonzero;fill:#19df92;fill-opacity:1;" d="M 51.429688 62.234375 C 51.175781 62.234375 50.929688 62.183594 50.695312 62.085938 C 50.460938 61.992188 50.253906 61.851562 50.074219 61.671875 C 49.894531 61.492188 49.753906 61.285156 49.65625 61.050781 C 49.5625 60.816406 49.511719 60.570312 49.511719 60.316406 C 49.511719 60.0625 49.5625 59.816406 49.65625 59.582031 C 49.753906 59.347656 49.894531 59.140625 50.074219 58.960938 C 50.253906 58.78125 50.460938 58.644531 50.695312 58.546875 C 50.929688 58.449219 51.175781 58.398438 51.429688 58.398438 C 51.972656 58.390625 52.507812 58.332031 53.039062 58.21875 C 53.570312 58.105469 54.085938 57.941406 54.582031 57.730469 C 55.082031 57.515625 55.554688 57.257812 56.003906 56.949219 C 56.453125 56.644531 56.867188 56.296875 57.246094 55.914062 C 57.628906 55.527344 57.96875 55.105469 58.265625 54.652344 C 58.566406 54.199219 58.816406 53.722656 59.023438 53.222656 C 59.230469 52.71875 59.382812 52.203125 59.488281 51.667969 C 59.59375 51.136719 59.644531 50.601562 59.644531 50.058594 C 59.644531 49.515625 59.59375 48.976562 59.488281 48.445312 C 59.382812 47.914062 59.230469 47.394531 59.023438 46.894531 C 58.816406 46.390625 58.566406 45.914062 58.265625 45.460938 C 57.96875 45.007812 57.628906 44.589844 57.246094 44.203125 C 56.867188 43.816406 56.453125 43.46875 56.003906 43.164062 C 55.554688 42.859375 55.082031 42.597656 54.582031 42.386719 C 54.085938 42.171875 53.570312 42.007812 53.039062 41.894531 C 52.507812 41.785156 51.972656 41.722656 51.429688 41.714844 C 47.097656 41.714844 43.882812 40.203125 42.386719 37.460938 L 34.351562 22.761719 C 34.226562 22.539062 34.148438 22.300781 34.121094 22.046875 C 34.089844 21.792969 34.113281 21.542969 34.183594 21.296875 C 34.253906 21.050781 34.371094 20.828125 34.527344 20.628906 C 34.6875 20.429688 34.882812 20.269531 35.105469 20.144531 C 35.328125 20.023438 35.570312 19.949219 35.824219 19.921875 C 36.078125 19.894531 36.328125 19.917969 36.570312 19.992188 C 36.816406 20.0625 37.039062 20.179688 37.238281 20.34375 C 37.433594 20.503906 37.59375 20.699219 37.714844 20.921875 L 45.742188 35.621094 C 46.855469 37.660156 50.085938 37.882812 51.421875 37.882812 C 52.203125 37.90625 52.980469 38.003906 53.742188 38.175781 C 54.507812 38.351562 55.25 38.597656 55.964844 38.914062 C 56.683594 39.230469 57.363281 39.609375 58.003906 40.058594 C 58.648438 40.507812 59.242188 41.011719 59.789062 41.574219 C 60.335938 42.136719 60.820312 42.746094 61.25 43.402344 C 61.675781 44.0625 62.039062 44.753906 62.332031 45.480469 C 62.628906 46.207031 62.847656 46.953125 63 47.722656 C 63.148438 48.492188 63.222656 49.269531 63.222656 50.050781 C 63.222656 50.835938 63.148438 51.613281 63 52.382812 C 62.847656 53.152344 62.628906 53.898438 62.332031 54.625 C 62.039062 55.351562 61.675781 56.042969 61.25 56.699219 C 60.820312 57.355469 60.335938 57.96875 59.789062 58.53125 C 59.242188 59.09375 58.648438 59.597656 58.003906 60.046875 C 57.363281 60.492188 56.683594 60.875 55.964844 61.191406 C 55.25 61.507812 54.507812 61.753906 53.742188 61.925781 C 52.980469 62.101562 52.203125 62.199219 51.421875 62.222656 Z M 51.429688 62.234375 "/></g></g></svg>